<svg width="50" height="50" viewBox="0 0 50 50" fill="none" xmlns="http://www.w3.org/2000/svg">
<path d="M15.6665 44.75C8.854 41.5417 3.979 34.9167 3.229 27.0833H0.104004C1.1665 39.9167 11.8957 50 24.9998 50L26.3748 49.9375L18.4373 42L15.6665 44.75ZM17.5207 31.1667C17.1248 31.1667 16.7498 31.1042 16.4373 31C16.104 30.875 15.8332 30.7292 15.604 30.5C15.3748 30.2917 15.1873 30.0417 15.0623 29.7292C14.9373 29.4375 14.8748 29.1042 14.8748 28.75H12.1665C12.1665 29.5 12.3123 30.1667 12.604 30.7292C12.8957 31.2917 13.2915 31.7708 13.7707 32.1667C14.2707 32.5417 14.8332 32.8333 15.479 33.0208C16.104 33.2292 16.7707 33.3333 17.479 33.3333C18.2498 33.3333 18.979 33.2292 19.6248 33.0208C20.2915 32.8125 20.8748 32.5 21.354 32.1042C21.8332 31.7083 22.229 31.2083 22.4998 30.6042C22.7707 30 22.9165 29.3333 22.9165 28.5833C22.9165 28.1875 22.8748 27.7917 22.7707 27.4167C22.6665 27.0417 22.5207 26.6875 22.2915 26.3542C22.0832 26.0208 21.7915 25.7292 21.4582 25.4583C21.104 25.1875 20.6873 24.9792 20.1873 24.8125C20.604 24.625 20.9582 24.3958 21.2707 24.125C21.5832 23.8542 21.8332 23.5625 22.0415 23.25C22.2498 22.9375 22.3957 22.625 22.4998 22.2917C22.604 21.9583 22.6457 21.625 22.6457 21.2917C22.6457 20.5417 22.5207 19.875 22.2707 19.2917C22.0207 18.7083 21.6665 18.2292 21.2082 17.8542C20.7915 17.4583 20.229 17.1667 19.604 16.9583C18.9582 16.7708 18.2498 16.6667 17.479 16.6667C16.729 16.6667 16.0415 16.7708 15.3957 17C14.7707 17.2292 14.2082 17.5417 13.7498 17.9375C13.3123 18.3333 12.9582 18.7917 12.6873 19.3333C12.4373 19.875 12.3123 20.4583 12.3123 21.1042H15.0207C15.0207 20.75 15.0832 20.4375 15.2082 20.1667C15.3332 19.8958 15.4998 19.6458 15.729 19.4583C15.9582 19.2708 16.2082 19.1042 16.5207 19C16.8332 18.8958 17.1457 18.8333 17.5207 18.8333C18.354 18.8333 18.979 19.0417 19.3748 19.4792C19.7707 19.8958 19.979 20.5 19.979 21.2708C19.979 21.6458 19.9165 21.9792 19.8123 22.2917C19.7082 22.6042 19.5207 22.8542 19.2915 23.0625C19.0623 23.2708 18.7707 23.4375 18.4373 23.5625C18.104 23.6875 17.6873 23.75 17.229 23.75H15.6248V25.8958H17.229C17.6873 25.8958 18.104 25.9375 18.479 26.0417C18.854 26.1458 19.1665 26.3125 19.4165 26.5208C19.6665 26.75 19.8748 27.0208 20.0207 27.3542C20.1665 27.6875 20.229 28.0833 20.229 28.5417C20.229 29.3958 19.979 30.0417 19.4998 30.4792C19.0207 30.9583 18.354 31.1667 17.5207 31.1667ZM35.3332 18.8333C34.6665 18.1458 33.8748 17.6042 32.9582 17.2292C32.0623 16.8542 31.0415 16.6667 29.9165 16.6667H24.9998V33.3333H29.7915C30.9373 33.3333 31.9998 33.1458 32.9373 32.7708C33.8748 32.3958 34.6873 31.875 35.354 31.1875C36.0207 30.5 36.5415 29.6667 36.8957 28.7083C37.2498 27.7292 37.4373 26.6458 37.4373 25.4375V24.6042C37.4373 23.3958 37.2498 22.3125 36.8957 21.3333C36.5207 20.3542 35.9998 19.5208 35.3332 18.8333ZM34.5207 25.4167C34.5207 26.2917 34.4165 27.0625 34.229 27.7708C34.0207 28.4583 33.729 29.0625 33.3332 29.5417C32.9373 30.0208 32.4373 30.3958 31.854 30.6458C31.2498 30.8958 30.5623 31.0208 29.7915 31.0208H27.8957V19H29.9165C31.4165 19 32.5623 19.4792 33.3332 20.4375C34.1248 21.3958 34.5207 22.7708 34.5207 24.5833V25.4167ZM24.9998 0L23.6248 0.0625L31.5623 8L34.3332 5.22917C41.1457 8.45833 46.0207 15.0625 46.7498 22.8958H49.8748C48.8332 10.0833 38.104 0 24.9998 0Z" fill="#FF4400"/>
</svg>
