<svg width="61" height="59" viewBox="0 0 61 59" fill="none" xmlns="http://www.w3.org/2000/svg">
<ellipse cx="30.4657" cy="29.4236" rx="30.4657" ry="29.4236" fill="#FF4400"/>
<path d="M30.1916 51.1405C18.0844 51.1405 8.23438 41.5552 8.23438 29.7734C8.23438 17.9915 18.0844 8.40625 30.1916 8.40625C42.2988 8.40625 52.1488 17.9915 52.1488 29.7734C52.1488 41.5552 42.2988 51.1405 30.1916 51.1405ZM30.1916 10.543C19.2942 10.543 10.4301 19.1689 10.4301 29.7734C10.4301 40.3779 19.2942 49.0038 30.1916 49.0038C41.089 49.0038 49.9531 40.3779 49.9531 29.7734C49.9531 19.1689 41.089 10.543 30.1916 10.543Z" fill="white"/>
<path d="M30.1907 27.6367C26.559 27.6367 23.6035 24.7607 23.6035 21.2265C23.6035 17.6924 26.559 14.8164 30.1907 14.8164C33.8224 14.8164 36.7779 17.6924 36.7779 21.2265C36.7779 24.7607 33.8224 27.6367 30.1907 27.6367ZM30.1907 16.9531C27.7688 16.9531 25.7992 18.8697 25.7992 21.2265C25.7992 23.5833 27.7688 25.5 30.1907 25.5C32.6126 25.5 34.5821 23.5833 34.5821 21.2265C34.5821 18.8697 32.6126 16.9531 30.1907 16.9531Z" fill="white"/>
<path d="M40.0723 40.457C39.4662 40.457 38.9744 39.9784 38.9744 39.3886V35.5917C38.9744 33.5597 37.4023 31.9101 35.47 31.9101H24.913C22.9808 31.9101 21.4086 33.5597 21.4086 35.5917V39.3886C21.4086 39.9784 20.9168 40.457 20.3108 40.457C19.7047 40.457 19.2129 39.9784 19.2129 39.3886V35.5917C19.2129 32.3845 21.7687 29.7734 24.913 29.7734H35.4722C38.6143 29.7734 41.1701 32.3845 41.1701 35.5917V39.3886C41.1701 39.9784 40.6783 40.457 40.0723 40.457Z" fill="white"/>
</svg>
