<svg width="62" height="59" viewBox="0 0 62 59" fill="none" xmlns="http://www.w3.org/2000/svg">
<ellipse cx="30.8348" cy="29.4236" rx="30.4657" ry="29.4236" fill="#FF4400"/>
<path d="M26.0764 28.1989V22.1727C26.0764 19.9491 27.8439 18.1445 30.0218 18.1445C32.1997 18.1445 33.9673 19.9491 33.9673 22.1727V28.1989C35.8769 26.8938 37.1236 24.6863 37.1236 22.1727C37.1236 18.1606 33.9515 14.9219 30.0218 14.9219C26.0922 14.9219 22.92 18.1606 22.92 22.1727C22.92 24.6863 24.1668 26.8938 26.0764 28.1989ZM41.6056 35.6592L34.4407 32.0177C34.1724 31.9049 33.8884 31.8404 33.5885 31.8404H32.3891V22.1727C32.3891 20.8353 31.3317 19.7557 30.0218 19.7557C28.7119 19.7557 27.6546 20.8353 27.6546 22.1727V39.4779L22.2414 38.3178C22.1152 38.3017 22.0047 38.2695 21.8627 38.2695C21.3734 38.2695 20.9315 38.4789 20.6159 38.8012L19.3691 40.0902L27.1653 48.05C27.5914 48.4851 28.1911 48.759 28.8382 48.759H39.554C40.7376 48.759 41.653 47.8728 41.8266 46.6965L43.0102 38.205C43.026 38.0922 43.0418 37.9794 43.0418 37.8828C43.0418 36.8838 42.4421 36.0137 41.6056 35.6592Z" fill="white"/>
</svg>
