<svg width="62" height="59" viewBox="0 0 62 59" fill="none" xmlns="http://www.w3.org/2000/svg">
<ellipse cx="31.2052" cy="29.425" rx="30.465" ry="29.425" fill="#FF4400"/>
<path d="M49.7399 35.3322C49.7399 31.2371 47.1059 27.5824 43.1609 25.8047C43.0384 33.6564 35.9011 40.0221 27.0977 40.1314C29.0909 43.6499 33.1886 45.9992 37.78 45.9992C39.9327 45.9992 42.0262 45.4878 43.8655 44.5162L49.6877 45.9526L48.0773 40.7598C49.1666 39.1193 49.7399 37.2522 49.7399 35.3322Z" fill="white"/>
<path d="M40.9961 25.6006C40.9961 18.6525 34.6585 13 26.8682 13C19.0779 13 12.7402 18.6525 12.7402 25.6006C12.7402 27.865 13.416 30.0698 14.6993 32.0054L12.7922 38.1546L19.687 36.4539C21.8573 37.5984 24.3293 38.2012 26.8682 38.2012C34.6585 38.2012 40.9961 32.5487 40.9961 25.6006ZM24.7002 22.668H22.5322C22.5322 20.5355 24.4772 18.8008 26.8682 18.8008C29.2591 18.8008 31.2041 20.5355 31.2041 22.668C31.2041 23.7503 30.6903 24.7906 29.7941 25.5218L27.9521 27.0254V28.5332H25.7842V26.1739L28.3304 24.0953C28.7855 23.7239 29.0361 23.2171 29.0361 22.668C29.0361 21.6017 28.0637 20.7344 26.8682 20.7344C25.6727 20.7344 24.7002 21.6017 24.7002 22.668ZM25.7842 30.4668H27.9521V32.4004H25.7842V30.4668Z" fill="white"/>
</svg>
