<svg width="81" height="64" viewBox="0 0 81 64" fill="none" xmlns="http://www.w3.org/2000/svg">
<path d="M79.9215 53.4316L47.3887 3.52291C45.951 1.31719 43.3757 0 40.4999 0C37.624 0 35.0488 1.3169 33.611 3.52291L1.07857 53.4316C-0.359522 55.6373 -0.359522 58.2711 1.07857 60.4771C2.51665 62.6831 5.09158 64 7.96743 64H73.0333C75.9088 64 78.4841 62.6831 79.9218 60.4774C81.3596 58.2714 81.3593 55.6376 79.9215 53.4316ZM40.5002 55.8805C37.6451 55.8805 35.3224 53.8232 35.3224 51.2944C35.3224 48.7658 37.6451 46.7085 40.5002 46.7085C43.3553 46.7085 45.678 48.7658 45.678 51.2944C45.6777 53.8235 43.355 55.8805 40.5002 55.8805ZM45.7129 36.2769C45.7129 38.8226 43.3744 40.8939 40.5002 40.8939C37.626 40.8939 35.2875 38.8226 35.2875 36.2769V15.0866C35.2875 13.8788 36.393 12.8996 37.7567 12.8996H43.244C44.608 12.8996 45.7133 13.8788 45.7133 15.0866V36.2769H45.7129Z" fill="#FF4400"/>
</svg>
