<svg width="25" height="24" viewBox="0 0 25 24" fill="none" xmlns="http://www.w3.org/2000/svg">
<path d="M13.7994 19.6552C13.7317 19.1933 13.3369 18.8359 12.8546 18.8359H8.25252C7.77118 18.8359 7.37648 19.1926 7.30819 19.6552C6.8207 19.8084 6.46289 20.2594 6.46289 20.7985V21.136H14.6447V20.7985C14.6447 20.2594 14.288 19.809 13.7994 19.6552Z" fill="#858585"/>
<path d="M14.6565 14.2775C14.6617 14.2624 14.6706 14.2452 14.6742 14.2306L14.9924 13.117C15.1101 12.7082 14.9133 12.2217 14.5445 12.0093L13.0966 11.1723C12.7399 10.9661 12.1956 11.0442 11.9123 11.3384L11.1076 12.1713C10.868 12.4187 10.6065 12.8713 10.5123 13.202L10.1941 14.3156C10.0768 14.7244 10.2727 15.2109 10.642 15.4234L12.0899 16.2594C12.2279 16.3396 12.3914 16.3818 12.5633 16.3818C12.8347 16.3818 13.1008 16.2745 13.2732 16.0938L14.0795 15.2615C14.0899 15.2499 14.1008 15.2343 14.1117 15.2224L16.0471 16.34C16.0941 16.5588 16.2258 16.7588 16.4352 16.879L18.7972 18.2427C18.9264 18.3171 19.067 18.3526 19.206 18.3526C19.4884 18.3526 19.7638 18.2062 19.9149 17.9432C20.1404 17.552 20.0071 17.0515 19.6159 16.8259L17.2534 15.4619C17.0445 15.3415 16.8055 15.326 16.5929 15.3952L14.6565 14.2775Z" fill="#858585"/>
<path d="M12.3397 9.79056C12.1891 10.0516 12.2787 10.3849 12.5397 10.5354L15.3741 12.1724C15.4595 12.2219 15.5532 12.2453 15.646 12.2453C15.8345 12.2453 16.0179 12.1473 16.1189 11.9724C16.2694 11.711 16.1798 11.3781 15.9189 11.227L13.0845 9.59048C12.8241 9.4405 12.4907 9.52909 12.3397 9.79056Z" fill="#858585"/>
<path d="M9.26639 16.2058L12.1002 17.8422C12.1866 17.8917 12.2804 17.9151 12.3731 17.9151C12.5616 17.9151 12.7444 17.8172 12.846 17.6422C12.9965 17.3812 12.9069 17.0484 12.646 16.8974L9.81165 15.2609C9.55119 15.1099 9.21687 15.1995 9.06631 15.4604C8.91582 15.7214 9.00483 16.0552 9.26639 16.2058Z" fill="#858585"/>
<path d="M13.1889 4.87853C12.9847 4.70195 12.6806 4.70195 12.4764 4.87853L4.25546 11.9692C4.13563 12.0728 4.06641 12.2234 4.06641 12.3827V22.6375C4.06641 22.9391 4.31061 23.1829 4.61217 23.1829H21.053C21.3545 23.1829 21.5987 22.9391 21.5987 22.6375V12.3827C21.5987 12.2233 21.5295 12.0728 21.4097 11.9692L13.1889 4.87853ZM20.5078 22.0917H5.15751V12.6322L12.8327 6.01183L20.5078 12.6322V22.0917Z" fill="#858585"/>
<path d="M24.4544 10.4639L13.5454 1.0821C13.136 0.730444 12.5319 0.730444 12.1225 1.0821L1.21349 10.4639C0.756737 10.8566 0.705201 11.5452 1.09737 12.002C1.49063 12.4583 2.18014 12.5103 2.63597 12.1182L12.834 3.34819L23.032 12.1182C23.2378 12.2947 23.4909 12.3822 23.7425 12.3822C24.0493 12.3822 24.3545 12.2531 24.5706 12.002C24.9627 11.5452 24.9112 10.8566 24.4544 10.4639Z" fill="#858585"/>
</svg>
