   
<svg width="150" height="62" viewBox="0 0 150 62" fill="none" xmlns="http://www.w3.org/2000/svg">
<path d="M124.005 61.6667L115.268 51.9209H108.026C102.326 51.9209 97.6885 47.3471 97.6885 41.726H102.879C102.879 44.5246 105.188 46.802 108.026 46.802H117.608L123.716 53.6155L129.004 46.802H139.661C142.499 46.802 144.808 44.5246 144.808 41.726V10.1949C144.808 7.39637 142.499 5.11891 139.661 5.11891H108.026C105.188 5.11891 102.879 7.39637 102.879 10.1949H97.6885C97.6885 4.57384 102.326 0 108.026 0H139.663C145.362 0 150 4.57384 150 10.1949V41.726C150 47.3471 145.362 51.9209 139.663 51.9209H131.568L124.005 61.6667Z" fill="#FF4400"/>
<path d="M32.0388 41.1078H26.8216L20.6705 23.5229L14.5206 41.1078H9.30472L0 14.0408H6.42362L12.0681 32.239L18.1796 13.9639H23.3187L29.4302 32.239L35.0747 14.0408H41.3422L32.0388 41.1078Z" fill="#FF4400"/>
<path d="M60.2243 40.9159L57.7334 34.8886H46.2103L43.7194 40.9159H37.6079L49.2871 13.8477H54.8152L66.4943 40.9159H60.2243ZM51.9712 20.9513L48.3506 29.6662H55.5917L51.9712 20.9513Z" fill="#FF4400"/>
<path d="M78.5196 30.2053V40.9175H72.5245V30.3201L62.0518 14.041H69.0588L75.5604 24.8302L82.1785 14.041H88.991L78.5196 30.2053Z" fill="#FF4400"/>
<path d="M107.173 40.9159L104.682 34.8886H93.159L90.6681 40.9159H84.5566L96.2358 13.8477H101.764L113.443 40.9159H107.173ZM98.9199 20.9513L95.2993 29.6662H102.54L98.9199 20.9513Z" fill="#FF4400"/>
<path d="M15.0081 49.3926C14.8175 49.7597 14.5603 50.0663 14.2354 50.3136C13.9104 50.5609 13.5317 50.7464 13.0993 50.8701C12.6669 50.9937 12.2089 51.0555 11.724 51.0555H9.51841V54.2162H8.49365V45.2578H11.8942C12.4046 45.2578 12.869 45.3234 13.2887 45.4559C13.7083 45.5884 14.0678 45.7764 14.3659 46.0186C14.664 46.2622 14.893 46.5599 15.0542 46.9145C15.2141 47.269 15.2947 47.6678 15.2947 48.1106C15.2934 48.6002 15.1974 49.0267 15.0081 49.3926ZM13.5983 46.6861C13.1518 46.3581 12.5594 46.194 11.8225 46.194H9.51969V50.1357H11.7701C12.1436 50.1357 12.4839 50.089 12.791 49.9944C13.0993 49.901 13.3629 49.766 13.5842 49.5907C13.8055 49.4165 13.9744 49.2071 14.0921 48.9636C14.2098 48.7201 14.2674 48.45 14.2674 48.151C14.2686 47.5037 14.0448 47.0154 13.5983 46.6861Z" fill="#FF4400"/>
<path d="M23.3973 48.5164C23.0724 48.6059 22.7551 48.7233 22.4429 48.8684L22.1448 48.0621C22.5171 47.8918 22.8932 47.7568 23.2732 47.6584C23.6532 47.56 24.0907 47.5107 24.5833 47.5107C25.5006 47.5107 26.2055 47.7353 26.698 48.1833C27.1906 48.6312 27.4375 49.2949 27.4375 50.173V54.2169H26.4767V53.2189C26.2426 53.5179 25.9291 53.7816 25.5364 54.0125C25.1423 54.2434 24.6472 54.3583 24.0511 54.3583C23.7402 54.3583 23.4344 54.3154 23.1363 54.2308C22.8382 54.1463 22.5696 54.0151 22.3316 53.8409C22.0936 53.6668 21.903 53.4511 21.761 53.1949C21.6177 52.9388 21.5474 52.636 21.5474 52.2865C21.5474 51.937 21.6164 51.6278 21.7546 51.3591C21.8928 51.0903 22.0898 50.8657 22.3457 50.6866C22.6003 50.5074 22.9035 50.3711 23.254 50.2765C23.6046 50.1831 23.9909 50.1352 24.4157 50.1352C24.8481 50.1352 25.2242 50.1604 25.5441 50.2121C25.8639 50.2639 26.1761 50.332 26.478 50.4166V50.1857C26.478 49.5888 26.3027 49.1384 25.9522 48.8356C25.6016 48.5328 25.1104 48.3814 24.4796 48.3814C24.083 48.3814 23.7223 48.4268 23.3973 48.5164ZM23.0775 51.2354C22.741 51.4827 22.5734 51.8196 22.5734 52.2461C22.5734 52.4593 22.6182 52.6473 22.709 52.8088C22.7998 52.9716 22.9227 53.1091 23.0775 53.2252C23.2323 53.34 23.4114 53.4284 23.6148 53.4877C23.8169 53.547 24.0306 53.5772 24.2545 53.5772C24.5641 53.5772 24.8558 53.5318 25.127 53.4422C25.3982 53.3526 25.6362 53.229 25.8383 53.0713C26.0404 52.9136 26.2004 52.7256 26.3168 52.5085C26.4332 52.2915 26.4908 52.0505 26.4908 51.7856V51.1458C26.24 51.0777 25.9534 51.0134 25.6311 50.9541C25.3074 50.8948 24.9389 50.8645 24.5257 50.8645C23.8975 50.8645 23.4139 50.9881 23.0775 51.2354Z" fill="#FF4400"/>
<path d="M37.7686 54.4345C37.4833 55.1171 37.1647 55.5991 36.8142 55.8805C36.4636 56.1618 36.0376 56.3031 35.5361 56.3031C35.2585 56.3031 35.0077 56.2754 34.7839 56.2199C34.5587 56.1644 34.3335 56.0811 34.1084 55.97L34.4461 55.189C34.6099 55.2736 34.7723 55.3366 34.9323 55.3745C35.0922 55.4124 35.2802 55.4325 35.4964 55.4325C35.7997 55.4325 36.0542 55.343 36.2615 55.1638C36.4688 54.9846 36.6722 54.6604 36.8718 54.191L33.8218 47.5996H34.9259L37.3656 53.116L39.52 47.5996H40.5844L37.7686 54.4345Z" fill="#FF4400"/>
<path d="M54.5798 53.4435C54.3239 53.6353 54.0501 53.7993 53.7559 53.9368C53.4616 54.0731 53.1456 54.1804 52.8092 54.2573C52.4714 54.3343 52.0953 54.3721 51.6808 54.3721C51.0232 54.3721 50.4181 54.2523 49.8641 54.0138C49.3101 53.7753 48.8304 53.4485 48.4235 53.0347C48.0167 52.6208 47.6994 52.1325 47.4691 51.5698C47.2401 51.0071 47.125 50.4014 47.125 49.7529C47.125 49.1132 47.2389 48.5113 47.4691 47.9486C47.6981 47.3859 48.0167 46.8925 48.4235 46.4711C48.8304 46.0484 49.314 45.7166 49.8769 45.473C50.4398 45.2295 51.0539 45.1084 51.7192 45.1084C52.1349 45.1084 52.5085 45.1425 52.8411 45.2106C53.1738 45.2787 53.4834 45.3746 53.7687 45.4983C54.054 45.6219 54.3175 45.7721 54.5606 45.9462C54.8024 46.1216 55.0365 46.3159 55.2617 46.5279L54.5606 47.2698C54.1717 46.9114 53.7533 46.6174 53.3081 46.3865C52.8629 46.1556 52.3281 46.0408 51.7051 46.0408C51.2036 46.0408 50.7379 46.1355 50.3106 46.3222C49.882 46.5102 49.511 46.7701 49.195 47.1032C48.879 47.4363 48.6321 47.8262 48.4555 48.2741C48.2777 48.722 48.1894 49.2066 48.1894 49.7264C48.1894 50.2475 48.2777 50.7333 48.4555 51.185C48.6321 51.6367 48.879 52.0291 49.195 52.3622C49.511 52.6953 49.8833 52.9577 50.3106 53.1495C50.7392 53.3413 51.2036 53.4372 51.7051 53.4372C52.3281 53.4372 52.8642 53.3236 53.3145 53.0978C53.7648 52.8719 54.2049 52.554 54.6386 52.1439L55.3128 52.7962C55.0787 53.036 54.8344 53.2517 54.5798 53.4435Z" fill="#FF4400"/>
<path d="M63.1242 54.217H62.125V44.875H63.1242V48.7524C63.3493 48.394 63.6436 48.0887 64.0069 47.8376C64.3703 47.5865 64.8423 47.4603 65.4219 47.4603C65.8287 47.4603 66.1895 47.5247 66.5055 47.6521C66.8215 47.7795 67.0889 47.9612 67.3102 48.1959C67.5302 48.4306 67.6991 48.7095 67.8168 49.0337C67.9332 49.358 67.9921 49.7163 67.9921 50.1087V54.217H66.9929V50.3523C66.9929 49.7378 66.833 49.252 66.5132 48.8937C66.1933 48.5353 65.734 48.3562 65.1379 48.3562C64.8526 48.3562 64.5865 48.4054 64.3395 48.5038C64.0926 48.6022 63.879 48.7423 63.6973 48.9265C63.5157 49.1107 63.3749 49.3302 63.2751 49.5851C63.1753 49.84 63.1254 50.1226 63.1254 50.4292V54.217H63.1242Z" fill="#FF4400"/>
<path d="M76.6517 48.5164C76.3267 48.6059 76.0095 48.7233 75.6973 48.8684L75.3992 48.0621C75.7715 47.8918 76.1476 47.7568 76.5276 47.6584C76.9076 47.56 77.3451 47.5107 77.8377 47.5107C78.7549 47.5107 79.4599 47.7353 79.9524 48.1833C80.445 48.6312 80.6919 49.2949 80.6919 50.173V54.2169H79.7311V53.2189C79.497 53.5179 79.1835 53.7816 78.7908 54.0125C78.3967 54.2434 77.9016 54.3583 77.3054 54.3583C76.9946 54.3583 76.6888 54.3154 76.3907 54.2308C76.0926 54.1463 75.824 54.0151 75.586 53.8409C75.348 53.6668 75.1574 53.4511 75.0154 53.1949C74.8721 52.9388 74.8018 52.636 74.8018 52.2865C74.8018 51.937 74.8708 51.6278 75.009 51.3591C75.1472 51.0903 75.3442 50.8657 75.6001 50.6866C75.8547 50.5074 76.1579 50.3711 76.5084 50.2765C76.859 50.1831 77.2453 50.1352 77.6701 50.1352C78.1025 50.1352 78.4786 50.1604 78.7984 50.2121C79.1183 50.2639 79.4304 50.332 79.7324 50.4166V50.1857C79.7324 49.5888 79.5571 49.1384 79.2066 48.8356C78.856 48.5328 78.3647 48.3814 77.734 48.3814C77.3374 48.3814 76.9767 48.4268 76.6517 48.5164ZM76.3319 51.2354C75.9954 51.4827 75.8278 51.8196 75.8278 52.2461C75.8278 52.4593 75.8726 52.6473 75.9634 52.8088C76.0542 52.9716 76.1771 53.1091 76.3319 53.2252C76.4867 53.34 76.6658 53.4284 76.8692 53.4877C77.0713 53.547 77.285 53.5772 77.5101 53.5772C77.8197 53.5772 78.1114 53.5318 78.3827 53.4422C78.6539 53.3526 78.8918 53.229 79.094 53.0713C79.2961 52.9136 79.456 52.7256 79.5724 52.5085C79.6889 52.2915 79.7464 52.0505 79.7464 51.7856V51.1458C79.4957 51.0777 79.2091 51.0134 78.8867 50.9541C78.563 50.8948 78.1946 50.8645 77.7814 50.8645C77.1519 50.8645 76.6683 50.9881 76.3319 51.2354Z" fill="#FF4400"/>
<path d="M89.2986 52.3362C89.2986 52.7463 89.4023 53.0314 89.6095 53.1942C89.8168 53.357 90.0893 53.4377 90.427 53.4377C90.5997 53.4377 90.7622 53.4213 90.9132 53.386C91.0641 53.3519 91.2266 53.2926 91.3993 53.2068V54.0509C91.2266 54.1455 91.0424 54.2149 90.8479 54.2616C90.6535 54.3083 90.4347 54.3323 90.1929 54.3323C89.9242 54.3323 89.6735 54.2982 89.4406 54.2301C89.2065 54.1619 89.0057 54.0534 88.8368 53.9033C88.6679 53.7544 88.5361 53.5601 88.4415 53.3204C88.3468 53.0819 88.2982 52.7955 88.2982 52.4636V48.4702H87.3643V47.5996H88.2982V45.6035H89.2986V47.5996H91.4262V48.4702H89.2986V52.3362Z" fill="#FF4400"/>
</svg>