<svg width="16" height="15" viewBox="0 0 16 15" fill="none" xmlns="http://www.w3.org/2000/svg">
<path d="M1.39044 11.9636C0.0519063 9.81275 0.709231 6.98911 2.86007 5.65058L10.2889 1.02735C11.8526 0.0542681 13.9071 0.532565 14.8802 2.09617C15.8533 3.65977 15.375 5.71437 13.8114 6.68745L7.79755 10.4301C6.82119 11.0377 5.53563 10.7384 4.928 9.76205C4.32038 8.78568 4.61965 7.50012 5.59602 6.8925L10.9024 3.59019L11.783 5.00522L6.41295 8.34715C6.02382 8.58932 6.46413 9.29683 6.85326 9.05466L12.9308 5.27242C13.7091 4.78808 13.9495 3.75505 13.4652 2.97678C12.9809 2.19852 11.9478 1.95803 11.1696 2.44237L3.74068 7.0656C2.37518 7.91539 1.95567 9.71747 2.80547 11.083C3.65526 12.4485 5.45734 12.868 6.82284 12.0182L13.5442 7.83527L14.4248 9.25029L7.70345 13.4332C5.55261 14.7717 2.72898 14.1144 1.39044 11.9636Z" fill="#FF4400"/>
</svg>
