<svg width="18" height="19" viewBox="0 0 18 19" fill="none" xmlns="http://www.w3.org/2000/svg">
<path d="M17.1105 10.9806L15.6397 5.96431C15.2086 4.49475 14.2717 3.20395 12.9779 2.29711C11.6841 1.39026 10.1076 0.919405 8.49909 0.959382C6.89058 0.99936 5.34233 1.54788 4.10042 2.51775C2.85852 3.48762 1.99424 4.82318 1.64497 6.31213L0.506289 11.1662C0.380512 11.7026 0.38342 12.2589 0.514798 12.7941C0.646177 13.3292 0.902671 13.8296 1.26534 14.2582C1.62802 14.6868 2.08761 15.0327 2.61019 15.2704C3.13277 15.5081 3.70499 15.6315 4.28461 15.6314H5.14694C5.3246 16.4608 5.79929 17.2065 6.49055 17.7421C7.18182 18.2777 8.04717 18.5703 8.93997 18.5703C9.83276 18.5703 10.6981 18.2777 11.3894 17.7421C12.0806 17.2065 12.5553 16.4608 12.733 15.6314H13.3817C13.9783 15.6315 14.567 15.5007 15.1015 15.2494C15.6361 14.9981 16.1021 14.6331 16.4632 14.1828C16.8243 13.7325 17.0706 13.2092 17.1831 12.6537C17.2955 12.0982 17.2709 11.5256 17.1112 10.9806H17.1105ZM8.93997 17.099C8.46138 17.0972 7.99509 16.9552 7.6049 16.6925C7.2147 16.4297 6.91966 16.0592 6.76014 15.6314H11.1198C10.9603 16.0592 10.6652 16.4297 10.275 16.6925C9.88484 16.9552 9.41855 17.0972 8.93997 17.099ZM15.2302 13.2943C15.0145 13.5655 14.735 13.7854 14.414 13.9363C14.093 14.0873 13.7392 14.1652 13.3809 14.1638H4.28461C3.93687 14.1638 3.5936 14.0897 3.28011 13.947C2.96662 13.8044 2.69092 13.5968 2.47337 13.3397C2.25582 13.0825 2.10196 12.7824 2.02316 12.4613C1.94436 12.1402 1.94262 11.8065 2.01808 11.4847L3.15599 6.62987C3.43029 5.46034 4.10913 4.41129 5.08459 3.64949C6.06006 2.88769 7.27616 2.45686 8.53959 2.42548C9.80301 2.39411 11.0412 2.76399 12.0574 3.47633C13.0737 4.18867 13.8095 5.20258 14.148 6.3569L15.6188 11.3732C15.716 11.7 15.7314 12.0438 15.664 12.3773C15.5965 12.7107 15.448 13.0247 15.2302 13.2943Z" fill="#1C1C1C"/>
</svg>
