<svg width="22" height="20" viewBox="0 0 22 20" fill="none" xmlns="http://www.w3.org/2000/svg">
<path d="M11.2788 0C5.50751 0 0.833984 4.48 0.833984 10C0.833984 15.52 5.50751 20 11.2788 20C17.0606 20 21.7446 15.52 21.7446 10C21.7446 4.48 17.0606 0 11.2788 0ZM18.5244 6H15.4401C15.1055 4.75 14.6245 3.55 13.9972 2.44C15.921 3.07 17.5207 4.35 18.5244 6ZM11.2893 2.04C12.1571 3.24 12.8367 4.57 13.2863 6H9.29233C9.74191 4.57 10.4215 3.24 11.2893 2.04ZM3.19688 12C3.0296 11.36 2.92505 10.69 2.92505 10C2.92505 9.31 3.0296 8.64 3.19688 8H6.73078C6.64714 8.66 6.5844 9.32 6.5844 10C6.5844 10.68 6.64714 11.34 6.73078 12H3.19688ZM4.05422 14H7.13854C7.47311 15.25 7.95405 16.45 8.58137 17.56C6.65759 16.93 5.05793 15.66 4.05422 14ZM7.13854 6H4.05422C5.05793 4.34 6.65759 3.07 8.58137 2.44C7.95405 3.55 7.47311 4.75 7.13854 6ZM11.2893 17.96C10.4215 16.76 9.74191 15.43 9.29233 14H13.2863C12.8367 15.43 12.1571 16.76 11.2893 17.96ZM13.7358 12H8.84275C8.74865 11.34 8.67547 10.68 8.67547 10C8.67547 9.32 8.74865 8.65 8.84275 8H13.7358C13.8299 8.65 13.9031 9.32 13.9031 10C13.9031 10.68 13.8299 11.34 13.7358 12ZM13.9972 17.56C14.6245 16.45 15.1055 15.25 15.4401 14H18.5244C17.5207 15.65 15.921 16.93 13.9972 17.56ZM15.8478 12C15.9315 11.34 15.9942 10.68 15.9942 10C15.9942 9.32 15.9315 8.66 15.8478 8H19.3817C19.549 8.64 19.6535 9.31 19.6535 10C19.6535 10.69 19.549 11.36 19.3817 12H15.8478Z" fill="currentColor"/>
</svg>
