<svg width="20" height="20" viewBox="0 0 20 20" fill="none" xmlns="http://www.w3.org/2000/svg">
<path d="M16.9741 10.9364C17.0101 10.6364 17.0341 10.3244 17.0341 10.0004C17.0341 9.67639 17.0101 9.36439 16.9621 9.06439L18.9901 7.48039C19.1701 7.33639 19.2181 7.07239 19.1101 6.86839L17.1901 3.54439C17.0701 3.32839 16.8181 3.25639 16.6021 3.32839L14.2141 4.28839C13.7101 3.90439 13.1821 3.59239 12.5941 3.35239L12.2341 0.808391C12.1981 0.568391 11.9941 0.400391 11.7541 0.400391H7.91409C7.67409 0.400391 7.48209 0.568391 7.44609 0.808391L7.08609 3.35239C6.49809 3.59239 5.95809 3.91639 5.46609 4.28839L3.07809 3.32839C2.86209 3.24439 2.61009 3.32839 2.49009 3.54439L0.570091 6.86839C0.450091 7.08439 0.498091 7.33639 0.690091 7.48039L2.71809 9.06439C2.67009 9.36439 2.63409 9.68839 2.63409 10.0004C2.63409 10.3124 2.65809 10.6364 2.70609 10.9364L0.678091 12.5204C0.498091 12.6644 0.450091 12.9284 0.558091 13.1324L2.47809 16.4564C2.59809 16.6724 2.85009 16.7444 3.06609 16.6724L5.45409 15.7124C5.95809 16.0964 6.48609 16.4084 7.07409 16.6484L7.43409 19.1924C7.48209 19.4324 7.67409 19.6004 7.91409 19.6004H11.7541C11.9941 19.6004 12.1981 19.4324 12.2221 19.1924L12.5821 16.6484C13.1701 16.4084 13.7101 16.0844 14.2021 15.7124L16.5901 16.6724C16.8061 16.7564 17.0581 16.6724 17.1781 16.4564L19.0981 13.1324C19.2181 12.9164 19.1701 12.6644 18.9781 12.5204L16.9741 10.9364ZM9.83409 13.6004C7.85409 13.6004 6.23409 11.9804 6.23409 10.0004C6.23409 8.02039 7.85409 6.40039 9.83409 6.40039C11.8141 6.40039 13.4341 8.02039 13.4341 10.0004C13.4341 11.9804 11.8141 13.6004 9.83409 13.6004Z" fill="#858585"/>
</svg>
