<svg width="31" height="25" viewBox="0 0 31 25" fill="none" xmlns="http://www.w3.org/2000/svg">
<path d="M27.909 4.42699C27.6602 4.2449 27.3349 4.15251 27.0045 4.17009C26.674 4.18766 26.3655 4.31377 26.1465 4.52074L23.809 6.76032L23.0215 6.02074C22.801 5.81354 22.4908 5.68781 22.1591 5.6712C21.8274 5.6546 21.5014 5.74848 21.2528 5.9322C21.0041 6.11592 20.8532 6.37442 20.8333 6.65084C20.8134 6.92726 20.926 7.19896 21.1465 7.40616L22.884 9.03116C23.0023 9.14037 23.147 9.22747 23.3086 9.28672C23.4702 9.34597 23.645 9.37603 23.8215 9.37491C23.9969 9.37325 24.1699 9.34086 24.3292 9.27985C24.4886 9.21883 24.6308 9.13055 24.7465 9.02074L28.009 5.89574C28.229 5.68976 28.3421 5.41947 28.3233 5.14414C28.3046 4.86881 28.1556 4.61091 27.909 4.42699Z" fill="#858585"/>
<path d="M13.334 11.4583C14.3229 11.4583 15.2896 11.214 16.1118 10.7561C16.9341 10.2983 17.5749 9.64754 17.9534 8.88618C18.3318 8.12482 18.4308 7.28705 18.2379 6.47879C18.045 5.67054 17.5688 4.92811 16.8695 4.34539C16.1703 3.76267 15.2793 3.36583 14.3094 3.20506C13.3395 3.04429 12.3342 3.12681 11.4206 3.44217C10.5069 3.75754 9.72604 4.29159 9.17664 4.97679C8.62723 5.662 8.33398 6.46758 8.33398 7.29167C8.33398 8.39674 8.86077 9.45655 9.79845 10.2379C10.7361 11.0193 12.0079 11.4583 13.334 11.4583Z" fill="#858585"/>
<path d="M20.834 21.8743C21.1655 21.8743 21.4834 21.7646 21.7179 21.5693C21.9523 21.3739 22.084 21.1089 22.084 20.8327C22.084 18.8988 21.1621 17.0441 19.5212 15.6767C17.8802 14.3092 15.6546 13.541 13.334 13.541C11.0133 13.541 8.78774 14.3092 7.1468 15.6767C5.50586 17.0441 4.58398 18.8988 4.58398 20.8327C4.58398 21.1089 4.71568 21.3739 4.9501 21.5693C5.18452 21.7646 5.50246 21.8743 5.83398 21.8743" fill="#858585"/>
</svg>
