<svg width="22" height="14" viewBox="0 0 22 14" fill="none" xmlns="http://www.w3.org/2000/svg">
<path d="M11.334 0C6.56126 0 2.48535 2.90267 0.833984 7C2.48535 11.0973 6.56126 14 11.334 14C16.1067 14 20.1826 11.0973 21.834 7C20.1826 2.90267 16.1067 0 11.334 0ZM11.334 11.6667C8.69944 11.6667 6.56126 9.576 6.56126 7C6.56126 4.424 8.69944 2.33333 11.334 2.33333C13.9685 2.33333 16.1067 4.424 16.1067 7C16.1067 9.576 13.9685 11.6667 11.334 11.6667ZM11.334 4.2C9.74944 4.2 8.47035 5.45067 8.47035 7C8.47035 8.54933 9.74944 9.8 11.334 9.8C12.9185 9.8 14.1976 8.54933 14.1976 7C14.1976 5.45067 12.9185 4.2 11.334 4.2Z" fill="#858585"/>
</svg>
