<svg width="21" height="20" viewBox="0 0 21 20" fill="none" xmlns="http://www.w3.org/2000/svg">
<path d="M13.904 9.25L13.004 10.17C12.284 10.89 11.834 11.5 11.834 13H9.83398V12.5C9.83398 11.39 10.284 10.39 11.004 9.67L12.244 8.41C12.614 8.05 12.834 7.55 12.834 7C12.834 5.89 11.934 5 10.834 5C10.3036 5 9.79484 5.21071 9.41977 5.58579C9.0447 5.96086 8.83398 6.46957 8.83398 7H6.83398C6.83398 5.93913 7.25541 4.92172 8.00556 4.17157C8.7557 3.42143 9.77312 3 10.834 3C11.8949 3 12.9123 3.42143 13.6624 4.17157C14.4126 4.92172 14.834 5.93913 14.834 7C14.834 7.88 14.474 8.67 13.904 9.25ZM11.834 17H9.83398V15H11.834V17ZM10.834 0C9.52077 0 8.22041 0.258658 7.00715 0.761205C5.79389 1.26375 4.6915 2.00035 3.76292 2.92893C1.88755 4.8043 0.833984 7.34784 0.833984 10C0.833984 12.6522 1.88755 15.1957 3.76292 17.0711C4.6915 17.9997 5.79389 18.7362 7.00715 19.2388C8.22041 19.7413 9.52077 20 10.834 20C13.4861 20 16.0297 18.9464 17.9051 17.0711C19.7804 15.1957 20.834 12.6522 20.834 10C20.834 4.47 16.334 0 10.834 0Z" fill="#858585"/>
</svg>
