<svg width="63" height="63" viewBox="0 0 63 63" fill="none" xmlns="http://www.w3.org/2000/svg">
<circle cx="31.5" cy="31.5" r="31.5" fill="#FF6634" fill-opacity="0.1"/>
<g clip-path="url(#clip0_3_8744)">
<path d="M32.0015 20.5586C26.2443 20.5586 21.5605 25.2424 21.5605 30.9995C21.5605 36.7567 26.2443 41.4405 32.0015 41.4405C37.7586 41.4405 42.4424 36.7567 42.4424 30.9995C42.4424 25.2424 37.7586 20.5586 32.0015 20.5586ZM28.7387 39.462V37.6742C28.7387 36.8029 29.0781 35.9836 29.6946 35.3671C30.3103 34.7508 31.1296 34.4115 32.0014 34.4115C33.8005 34.4115 35.2641 35.8752 35.2641 37.6742V39.462C34.2511 39.8539 33.1511 40.0694 32.0015 40.0694C30.8519 40.0694 29.7517 39.8538 28.7387 39.462ZM28.7389 29.7775C28.7389 27.9785 30.2025 26.5149 32.0016 26.5149C33.8006 26.5149 35.2642 27.9785 35.2642 29.7775C35.2642 31.5766 33.8006 33.0402 32.0016 33.0402C30.2025 33.0402 28.7389 31.5766 28.7389 29.7775ZM36.6352 38.7933V37.6741C36.6352 36.0065 35.7494 34.5421 34.4239 33.7259C35.7495 32.9096 36.6354 31.4453 36.6354 29.7775C36.6354 27.2224 34.5567 25.1438 32.0016 25.1438C29.4465 25.1438 27.3677 27.2225 27.3677 29.7775C27.3677 31.4442 28.2525 32.9077 29.5768 33.7243C29.2712 33.9127 28.985 34.1374 28.7249 34.3977C27.8496 35.273 27.3676 36.4366 27.3676 37.6741V38.7932C24.7134 37.2091 22.9317 34.3087 22.9317 30.9995C22.9317 25.9984 27.0004 21.9297 32.0015 21.9297C37.0026 21.9297 41.0713 25.9984 41.0713 30.9995C41.0713 34.3088 39.2895 37.2092 36.6352 38.7933Z" fill="#FF4400"/>
<path d="M46.761 28.3185C46.7019 27.9923 46.4179 27.755 46.0863 27.755H45.2516C44.9224 26.4025 44.3902 25.1185 43.6642 23.9251L44.2547 23.3346C44.4891 23.1002 44.5222 22.7315 44.3331 22.459C43.3019 20.9729 42.0259 19.6972 40.5407 18.6674C40.2682 18.4785 39.8996 18.5116 39.6652 18.746L39.0749 19.3363C37.8819 18.6099 36.5981 18.0776 35.2456 17.7483V16.9142C35.2456 16.5828 35.0086 16.2988 34.6825 16.2397C32.9298 15.9214 31.0708 15.9214 29.3182 16.2397C28.9921 16.2988 28.7551 16.5828 28.7551 16.9142V17.7483C27.403 18.0775 26.1193 18.6097 24.9259 19.3357L24.3354 18.7453C24.101 18.5109 23.7325 18.4778 23.46 18.6667C21.9737 19.6975 20.6977 20.9734 19.6675 22.4592C19.4785 22.7316 19.5117 23.1002 19.746 23.3346L20.3364 23.925C19.6108 25.1172 19.0784 26.4013 18.7486 27.755H17.9136C17.5821 27.755 17.298 27.9923 17.239 28.3185C17.0804 29.1954 17 30.0974 17 30.9996C17 31.903 17.0807 32.8054 17.2398 33.6817C17.299 34.0078 17.583 34.2449 17.9143 34.2449H18.7491C19.0783 35.5972 19.6105 36.8813 20.3366 38.0748L19.7461 38.6652C19.5116 38.8997 19.4785 39.2683 19.6677 39.5408C20.6989 41.0269 21.9749 42.3027 23.4601 43.3325C23.7325 43.5214 24.1011 43.4883 24.3355 43.2539L24.9258 42.6636C26.118 43.3892 27.4017 43.9216 28.7551 44.2514V45.0856C28.7551 45.417 28.9922 45.7009 29.3182 45.7601C30.1946 45.9192 31.097 45.9999 32.0004 45.9999C32.9039 45.9999 33.8062 45.9192 34.6826 45.7601C35.0087 45.7009 35.2457 45.417 35.2457 45.0856V44.2508C36.5988 43.9215 37.8825 43.3893 39.075 42.6635L39.6654 43.2538C39.8997 43.4882 40.2684 43.5213 40.5408 43.3324C42.0264 42.3023 43.3024 41.0263 44.3333 39.5399C44.5223 39.2674 44.4892 38.8988 44.2548 38.6644L43.6643 38.074C44.3896 36.8816 44.9218 35.5978 45.2516 34.2448H46.0858C46.4172 34.2448 46.7011 34.0077 46.7603 33.6817C46.9194 32.8054 47.0001 31.9029 47.0001 30.9995C47 30.0974 46.9196 29.1954 46.761 28.3185ZM45.501 32.8736H44.7015C44.3749 32.8736 44.0936 33.1041 44.0294 33.4243C43.7155 34.9889 43.1067 36.4577 42.2199 37.79C42.0389 38.0619 42.0748 38.4237 42.3058 38.6546L42.8717 39.2205C42.1126 40.2239 41.2243 41.1121 40.2214 41.8708L39.6555 41.3049C39.4245 41.0739 39.0625 41.038 38.7906 41.2192C37.4585 42.1066 35.9897 42.7153 34.4256 43.0284C34.1051 43.0926 33.8745 43.374 33.8745 43.7007V44.5008C32.6405 44.6706 31.3602 44.6706 30.1262 44.5008V43.7013C30.1262 43.3747 29.8958 43.0934 29.5754 43.0292C28.0106 42.7152 26.5418 42.1062 25.21 41.2191C24.9381 41.0379 24.5762 41.0738 24.3452 41.3049L23.7792 41.8708C22.7766 41.1124 21.8883 40.2242 21.1291 39.2212L21.6949 38.6554C21.9259 38.4245 21.9618 38.0626 21.7808 37.7908C20.893 36.4569 20.2842 34.9879 19.9714 33.4248C19.9073 33.1044 19.626 32.8737 19.2992 32.8737H18.499C18.4141 32.2567 18.3711 31.6286 18.3711 30.9996C18.3711 30.3713 18.4139 29.7434 18.4987 29.1261H19.2985C19.6252 29.1261 19.9065 28.8956 19.9706 28.5754C20.2845 27.01 20.8936 25.5411 21.7807 24.2094C21.9618 23.9374 21.926 23.5755 21.6949 23.3444L21.129 22.7785C21.8877 21.7756 22.7759 20.8874 23.7793 20.1283L24.3452 20.6942C24.5762 20.9252 24.938 20.9611 25.2099 20.7801C26.5437 19.8923 28.0124 19.2835 29.5752 18.9707C29.8956 18.9065 30.1262 18.6252 30.1262 18.2985V17.499C31.3602 17.3291 32.6405 17.3291 33.8745 17.499V18.2984C33.8745 18.6252 34.1051 18.9065 34.4256 18.9706C35.9888 19.2835 37.4574 19.8925 38.7906 20.7806C39.0624 20.9618 39.4244 20.9258 39.6555 20.6949L40.2214 20.129C41.224 20.8874 42.1123 21.7756 42.8716 22.7787L42.3058 23.3444C42.0748 23.5755 42.0389 23.9372 42.2199 24.2091C43.1077 25.5429 43.7164 27.0118 44.0293 28.5752C44.0934 28.8956 44.3747 29.1262 44.7015 29.1262H45.5012C45.586 29.7435 45.6288 30.3714 45.6288 30.9996C45.6288 31.6286 45.5859 32.2566 45.501 32.8736Z" fill="#FF4400"/>
</g>
<defs>
<clipPath id="clip0_3_8744">
<rect width="30" height="30" fill="white" transform="translate(17 16)"/>
</clipPath>
</defs>
</svg>
