<svg width="63" height="63" viewBox="0 0 63 63" fill="none" xmlns="http://www.w3.org/2000/svg">
<circle cx="31.5" cy="31.5" r="31.5" fill="#FF6634" fill-opacity="0.1"/>
<path d="M29.9547 43.6611C29.3087 43.6611 28.7861 44.1859 28.7861 44.8281C28.7861 45.4746 29.3086 45.9998 29.9547 45.9998C30.6005 45.9998 31.1233 45.4746 31.1233 44.8281C31.1233 44.1859 30.6006 43.6611 29.9547 43.6611Z" fill="#FF4400"/>
<path d="M31.9989 16C26.857 16 22.6738 20.1832 22.6738 25.325C22.6738 25.9389 23.1715 26.4366 23.7854 26.4366C24.3992 26.4366 24.8969 25.9389 24.8969 25.325C24.8969 21.409 28.0828 18.2231 31.9989 18.2231C35.9147 18.2231 39.1005 21.409 39.1005 25.325C39.1005 29.2413 35.9147 32.4274 31.9989 32.4274C31.9605 32.4274 31.9224 32.4294 31.8849 32.4332C30.2357 32.4925 28.9078 33.8204 28.8485 35.4695C28.8446 35.507 28.8427 35.5449 28.8427 35.5834V40.1662C28.8427 40.7801 29.3404 41.2778 29.9542 41.2778C30.5681 41.2778 31.0658 40.7801 31.0658 40.1662V35.5834C31.0658 35.069 31.4843 34.6505 31.9989 34.6505C37.1405 34.6505 41.3236 30.4671 41.3236 25.325C41.3236 20.1832 37.1407 16 31.9989 16Z" fill="#FF4400"/>
</svg>
