<svg width="41" height="40" viewBox="0 0 41 40" fill="none" xmlns="http://www.w3.org/2000/svg">
<path d="M19.2024 0H2.61849C1.17514 0 0 1.13145 0 2.52099V37.479C0 38.8686 1.17521 40 2.61849 40H19.2024C20.6457 40 21.8209 38.8685 21.8209 37.479V2.52099C21.8209 1.13145 20.6464 0 19.2024 0ZM19.2024 38.9916H2.61849C1.83781 38.9916 1.19259 38.4384 1.07254 37.7177C1.4489 38.4236 2.20445 38.9116 3.08356 38.9116H18.7373C19.6165 38.9116 20.3721 38.4229 20.7483 37.7177C20.6282 38.4384 19.983 38.9916 19.2024 38.9916ZM9.22616 1.86752C9.25128 1.9334 9.31692 1.97642 9.38885 1.97642H12.2406C12.3175 1.97642 12.3851 1.92805 12.4075 1.8574L12.5241 1.48901C12.5311 1.46616 12.5199 1.44599 12.5171 1.42314H18.7367C19.7959 1.42314 20.6569 2.25208 20.6569 3.27189V36.7268C20.6569 37.7466 19.7959 38.5755 18.7367 38.5755H3.08349C2.02424 38.5755 1.16324 37.7466 1.16324 36.7268V3.27259C1.16324 2.25278 2.02424 1.42384 3.08349 1.42384H9.08369C9.08091 1.44936 9.07113 1.47362 9.08157 1.49914L9.22616 1.86752ZM9.42448 1.42384H12.1799L12.1107 1.6403H9.50904L9.42448 1.42384ZM18.7373 1.08772H3.08349C2.20438 1.08772 1.44882 1.57647 1.07247 2.28168C1.19259 1.56163 1.83774 1.00772 2.61842 1.00772H19.2023C19.9829 1.00772 20.6281 1.561 20.7483 2.28168C20.3721 1.57647 19.6165 1.08772 18.7373 1.08772Z" fill="#FF4400"/>
<path d="M1.83301 4.2858V33.4455C1.83301 33.5846 1.95028 33.6976 2.09486 33.6976H19.5084C19.6529 33.6976 19.7702 33.5847 19.7702 33.4455V4.2858C19.7702 4.14667 19.653 4.03369 19.5084 4.03369H2.09486C1.95028 4.03369 1.83301 4.1466 1.83301 4.2858ZM2.35672 4.5379H19.2465V33.1934H2.35672V4.5379Z" fill="#FF4400"/>
<path d="M11.3906 35.1685H10.3865C9.9047 35.1685 9.51367 35.5456 9.51367 36.0088V36.3032C9.51367 36.7664 9.9047 37.1435 10.3865 37.1435H11.3906C11.8718 37.1435 12.2635 36.7664 12.2635 36.3032V36.0088C12.2635 35.5449 11.8718 35.1685 11.3906 35.1685ZM11.9143 36.3026C11.9143 36.5802 11.679 36.8068 11.3906 36.8068H10.3865C10.0981 36.8068 9.86279 36.5802 9.86279 36.3026V36.0082C9.86279 35.7305 10.0981 35.5039 10.3865 35.5039H11.3906C11.679 35.5039 11.9143 35.7305 11.9143 36.0082V36.3026Z" fill="#FF4400"/>
<path d="M15.0852 2.99774C15.3663 2.99774 15.5942 2.77833 15.5942 2.50766C15.5942 2.237 15.3663 2.01758 15.0852 2.01758C14.8041 2.01758 14.5762 2.237 14.5762 2.50766C14.5762 2.77833 14.8041 2.99774 15.0852 2.99774Z" fill="#FF4400"/>
<path d="M16.5101 35.9208H16.1603V35.7944L15.7832 36.0035L16.1603 36.2133V36.0896H16.5101C16.9444 36.0896 17.1211 36.1084 17.1211 36.2993C17.1211 36.4996 17.0338 36.509 16.7573 36.509H16.3063C16.2581 36.509 16.219 36.5466 16.219 36.593C16.219 36.6394 16.2581 36.677 16.3063 36.677H16.7573C16.9976 36.677 17.2957 36.677 17.2957 36.2992C17.2957 35.9214 16.8955 35.9208 16.5101 35.9208Z" fill="#FF4400"/>
<path d="M5.62988 35.6094H4.77867C4.73047 35.6094 4.69141 35.6471 4.69141 35.6934V36.492C4.69141 36.5384 4.73047 36.576 4.77867 36.576H5.62988C5.67808 36.576 5.71714 36.5384 5.71714 36.492V35.6934C5.71714 35.6471 5.67808 35.6094 5.62988 35.6094ZM5.54262 36.4073H4.866V36.0712H5.17182V35.7768H5.54262V36.4073Z" fill="#FF4400"/>
<rect x="11.5" y="12.5" width="29" height="15" rx="4.5" fill="white" stroke="#FF4400"/>
<path d="M21.508 21.68L21.736 19.988L20.392 21.044L19.816 20.024L21.388 19.4L19.828 18.8L20.368 17.828L21.748 18.872L21.508 17.156H22.624L22.384 18.872L23.752 17.828L24.28 18.788L22.72 19.412L24.292 20.036L23.728 21.032L22.384 19.988L22.612 21.68H21.508ZM26.7503 26L27.1943 23.9H25.4663V22.52H27.4943L27.8663 20.768H26.1023V19.388H28.1663L28.6103 17.324H30.0503L29.6063 19.388H31.8863L32.3303 17.324H33.7703L33.3383 19.388H34.8983V20.768H33.0383L32.6663 22.52H34.2623V23.9H32.3663L31.9223 26H30.4703L30.9263 23.9H28.6463L28.2023 26H26.7503ZM28.9343 22.52H31.2143L31.5983 20.768H29.3183L28.9343 22.52Z" fill="#FF4400"/>
</svg>
